<svg xmlns="http://www.w3.org/2000/svg" viewBox="0 0 64 64" fill="none">
  <rect width="64" height="64" rx="14" fill="#F58220"/>
  <path d="M14 32C14 21.5 22.5 13 33 13C39 13 44.4 15.8 47.9 20.1C43.7 18.2 38.9 18.2 34.5 20.2C28 23.2 24.5 29.7 25.2 36.3C20 35.4 14 35.2 14 32Z" fill="white" fill-opacity="0.95"/>
  <path d="M50 31.5C50 42 41.5 50.5 31 50.5C25 50.5 19.6 47.7 16.1 43.4C20.3 45.3 25.1 45.3 29.5 43.3C36 40.3 39.5 33.8 38.8 27.2C44 28.1 50 28.3 50 31.5Z" fill="white" fill-opacity="0.95"/>
</svg>
